<mxfile host="app.diagrams.net" modified="2020-05-09T01:02:53.802Z" agent="5.0 (Windows NT 10.0; Win64; x64) AppleWebKit/537.36 (KHTML, like Gecko) Chrome/81.0.4044.138 Safari/537.36" etag="fDI-bBnUBkKPOX9mnDrh" version="13.0.8" type="github">
  <diagram id="z3DOXh_vGBj5Rdi4AggJ" name="第 1 页">
    <mxGraphModel dx="1422" dy="762" grid="1" gridSize="10" guides="1" tooltips="1" connect="1" arrows="1" fold="1" page="1" pageScale="1" pageWidth="1920" pageHeight="1200" math="0" shadow="0">
      <root>
        <mxCell id="0" />
        <mxCell id="1" parent="0" />
        <mxCell id="Xy2w8Uf9_HxOMmggw3Uv-1" value="" style="rounded=0;whiteSpace=wrap;html=1;" vertex="1" parent="1">
          <mxGeometry x="260" y="80" width="740" height="280" as="geometry" />
        </mxCell>
        <mxCell id="Xy2w8Uf9_HxOMmggw3Uv-16" style="edgeStyle=orthogonalEdgeStyle;rounded=0;orthogonalLoop=1;jettySize=auto;html=1;entryX=1;entryY=0.5;entryDx=0;entryDy=0;" edge="1" parent="1" source="Xy2w8Uf9_HxOMmggw3Uv-2" target="Xy2w8Uf9_HxOMmggw3Uv-5">
          <mxGeometry relative="1" as="geometry" />
        </mxCell>
        <mxCell id="Xy2w8Uf9_HxOMmggw3Uv-32" value="立马同步" style="edgeLabel;html=1;align=center;verticalAlign=middle;resizable=0;points=[];" vertex="1" connectable="0" parent="Xy2w8Uf9_HxOMmggw3Uv-16">
          <mxGeometry x="0.2222" y="-1" relative="1" as="geometry">
            <mxPoint as="offset" />
          </mxGeometry>
        </mxCell>
        <mxCell id="Xy2w8Uf9_HxOMmggw3Uv-2" value="服务注册表" style="rounded=0;whiteSpace=wrap;html=1;" vertex="1" parent="1">
          <mxGeometry x="750" y="190" width="120" height="60" as="geometry" />
        </mxCell>
        <mxCell id="Xy2w8Uf9_HxOMmggw3Uv-3" value="服务注册中心" style="text;html=1;strokeColor=none;fillColor=none;align=center;verticalAlign=middle;whiteSpace=wrap;rounded=0;" vertex="1" parent="1">
          <mxGeometry x="530" y="150" width="120" height="10" as="geometry" />
        </mxCell>
        <mxCell id="Xy2w8Uf9_HxOMmggw3Uv-4" value="ReadOnly缓存" style="rounded=0;whiteSpace=wrap;html=1;" vertex="1" parent="1">
          <mxGeometry x="340" y="190" width="120" height="60" as="geometry" />
        </mxCell>
        <mxCell id="Xy2w8Uf9_HxOMmggw3Uv-33" style="edgeStyle=orthogonalEdgeStyle;rounded=0;orthogonalLoop=1;jettySize=auto;html=1;exitX=0;exitY=0.5;exitDx=0;exitDy=0;entryX=0.4;entryY=0.983;entryDx=0;entryDy=0;entryPerimeter=0;" edge="1" parent="1" source="Xy2w8Uf9_HxOMmggw3Uv-5" target="Xy2w8Uf9_HxOMmggw3Uv-4">
          <mxGeometry relative="1" as="geometry" />
        </mxCell>
        <mxCell id="Xy2w8Uf9_HxOMmggw3Uv-34" value="定时同步&lt;br&gt;30秒一次" style="edgeLabel;html=1;align=center;verticalAlign=middle;resizable=0;points=[];" vertex="1" connectable="0" parent="Xy2w8Uf9_HxOMmggw3Uv-33">
          <mxGeometry x="0.2227" y="-1" relative="1" as="geometry">
            <mxPoint x="38" y="1" as="offset" />
          </mxGeometry>
        </mxCell>
        <mxCell id="Xy2w8Uf9_HxOMmggw3Uv-5" value="writeRead缓存" style="rounded=0;whiteSpace=wrap;html=1;" vertex="1" parent="1">
          <mxGeometry x="530" y="270" width="120" height="60" as="geometry" />
        </mxCell>
        <mxCell id="Xy2w8Uf9_HxOMmggw3Uv-13" style="edgeStyle=orthogonalEdgeStyle;rounded=0;orthogonalLoop=1;jettySize=auto;html=1;exitX=0.5;exitY=0;exitDx=0;exitDy=0;entryX=0;entryY=0.5;entryDx=0;entryDy=0;" edge="1" parent="1" source="Xy2w8Uf9_HxOMmggw3Uv-6" target="Xy2w8Uf9_HxOMmggw3Uv-4">
          <mxGeometry relative="1" as="geometry" />
        </mxCell>
        <mxCell id="Xy2w8Uf9_HxOMmggw3Uv-14" value="服务发现&lt;br&gt;定时30秒拉取一次服务注册表" style="edgeLabel;html=1;align=center;verticalAlign=middle;resizable=0;points=[];" vertex="1" connectable="0" parent="Xy2w8Uf9_HxOMmggw3Uv-13">
          <mxGeometry x="-0.3024" y="-5" relative="1" as="geometry">
            <mxPoint as="offset" />
          </mxGeometry>
        </mxCell>
        <mxCell id="Xy2w8Uf9_HxOMmggw3Uv-6" value="服务A" style="rounded=0;whiteSpace=wrap;html=1;" vertex="1" parent="1">
          <mxGeometry x="90" y="440" width="120" height="60" as="geometry" />
        </mxCell>
        <mxCell id="Xy2w8Uf9_HxOMmggw3Uv-10" style="edgeStyle=orthogonalEdgeStyle;rounded=0;orthogonalLoop=1;jettySize=auto;html=1;entryX=0.75;entryY=1;entryDx=0;entryDy=0;" edge="1" parent="1" source="Xy2w8Uf9_HxOMmggw3Uv-7" target="Xy2w8Uf9_HxOMmggw3Uv-2">
          <mxGeometry relative="1" as="geometry">
            <Array as="points">
              <mxPoint x="840" y="470" />
            </Array>
          </mxGeometry>
        </mxCell>
        <mxCell id="Xy2w8Uf9_HxOMmggw3Uv-12" value="服务注册" style="edgeLabel;html=1;align=center;verticalAlign=middle;resizable=0;points=[];" vertex="1" connectable="0" parent="Xy2w8Uf9_HxOMmggw3Uv-10">
          <mxGeometry x="0.4867" y="-1" relative="1" as="geometry">
            <mxPoint as="offset" />
          </mxGeometry>
        </mxCell>
        <mxCell id="Xy2w8Uf9_HxOMmggw3Uv-17" style="edgeStyle=orthogonalEdgeStyle;rounded=0;orthogonalLoop=1;jettySize=auto;html=1;entryX=1;entryY=0.5;entryDx=0;entryDy=0;" edge="1" parent="1" source="Xy2w8Uf9_HxOMmggw3Uv-7" target="Xy2w8Uf9_HxOMmggw3Uv-2">
          <mxGeometry relative="1" as="geometry">
            <Array as="points">
              <mxPoint x="950" y="220" />
            </Array>
          </mxGeometry>
        </mxCell>
        <mxCell id="Xy2w8Uf9_HxOMmggw3Uv-18" value="发送心跳" style="edgeLabel;html=1;align=center;verticalAlign=middle;resizable=0;points=[];" vertex="1" connectable="0" parent="Xy2w8Uf9_HxOMmggw3Uv-17">
          <mxGeometry x="-0.2485" y="-5" relative="1" as="geometry">
            <mxPoint as="offset" />
          </mxGeometry>
        </mxCell>
        <mxCell id="Xy2w8Uf9_HxOMmggw3Uv-7" value="服务B" style="rounded=0;whiteSpace=wrap;html=1;" vertex="1" parent="1">
          <mxGeometry x="920" y="440" width="120" height="60" as="geometry" />
        </mxCell>
        <mxCell id="Xy2w8Uf9_HxOMmggw3Uv-9" style="edgeStyle=orthogonalEdgeStyle;rounded=0;orthogonalLoop=1;jettySize=auto;html=1;" edge="1" parent="1" source="Xy2w8Uf9_HxOMmggw3Uv-8" target="Xy2w8Uf9_HxOMmggw3Uv-2">
          <mxGeometry relative="1" as="geometry" />
        </mxCell>
        <mxCell id="Xy2w8Uf9_HxOMmggw3Uv-11" value="服务注册" style="edgeLabel;html=1;align=center;verticalAlign=middle;resizable=0;points=[];" vertex="1" connectable="0" parent="Xy2w8Uf9_HxOMmggw3Uv-9">
          <mxGeometry x="-0.0889" y="1" relative="1" as="geometry">
            <mxPoint as="offset" />
          </mxGeometry>
        </mxCell>
        <mxCell id="Xy2w8Uf9_HxOMmggw3Uv-21" style="edgeStyle=orthogonalEdgeStyle;rounded=0;orthogonalLoop=1;jettySize=auto;html=1;exitX=1;exitY=0.5;exitDx=0;exitDy=0;entryX=1;entryY=0.25;entryDx=0;entryDy=0;" edge="1" parent="1" source="Xy2w8Uf9_HxOMmggw3Uv-8" target="Xy2w8Uf9_HxOMmggw3Uv-2">
          <mxGeometry relative="1" as="geometry">
            <Array as="points">
              <mxPoint x="1180" y="550" />
              <mxPoint x="1180" y="205" />
            </Array>
          </mxGeometry>
        </mxCell>
        <mxCell id="Xy2w8Uf9_HxOMmggw3Uv-22" value="发送心跳" style="edgeLabel;html=1;align=center;verticalAlign=middle;resizable=0;points=[];" vertex="1" connectable="0" parent="Xy2w8Uf9_HxOMmggw3Uv-21">
          <mxGeometry x="0.0839" y="-1" relative="1" as="geometry">
            <mxPoint as="offset" />
          </mxGeometry>
        </mxCell>
        <mxCell id="Xy2w8Uf9_HxOMmggw3Uv-8" value="服务B" style="rounded=0;whiteSpace=wrap;html=1;" vertex="1" parent="1">
          <mxGeometry x="750" y="520" width="120" height="60" as="geometry" />
        </mxCell>
        <mxCell id="Xy2w8Uf9_HxOMmggw3Uv-23" value="默认60秒发送一次&lt;br&gt;心跳" style="text;html=1;strokeColor=none;fillColor=none;align=center;verticalAlign=middle;whiteSpace=wrap;rounded=0;" vertex="1" parent="1">
          <mxGeometry x="1000" y="350" width="120" height="50" as="geometry" />
        </mxCell>
        <mxCell id="Xy2w8Uf9_HxOMmggw3Uv-29" style="edgeStyle=orthogonalEdgeStyle;rounded=0;orthogonalLoop=1;jettySize=auto;html=1;" edge="1" parent="1" source="Xy2w8Uf9_HxOMmggw3Uv-26" target="Xy2w8Uf9_HxOMmggw3Uv-2">
          <mxGeometry relative="1" as="geometry" />
        </mxCell>
        <mxCell id="Xy2w8Uf9_HxOMmggw3Uv-30" value="定时检查心跳&lt;br&gt;30秒检查一次" style="edgeLabel;html=1;align=center;verticalAlign=middle;resizable=0;points=[];" vertex="1" connectable="0" parent="Xy2w8Uf9_HxOMmggw3Uv-29">
          <mxGeometry x="-0.2129" y="-4" relative="1" as="geometry">
            <mxPoint as="offset" />
          </mxGeometry>
        </mxCell>
        <mxCell id="Xy2w8Uf9_HxOMmggw3Uv-26" value="线程" style="ellipse;whiteSpace=wrap;html=1;aspect=fixed;" vertex="1" parent="1">
          <mxGeometry x="670" y="100" width="50" height="50" as="geometry" />
        </mxCell>
        <mxCell id="Xy2w8Uf9_HxOMmggw3Uv-31" value="超过90秒没有收到心跳，可视为服务down掉" style="text;html=1;strokeColor=none;fillColor=none;align=center;verticalAlign=middle;whiteSpace=wrap;rounded=0;" vertex="1" parent="1">
          <mxGeometry x="840" y="140" width="150" height="45" as="geometry" />
        </mxCell>
      </root>
    </mxGraphModel>
  </diagram>
</mxfile>
